<svg xmlns="http://www.w3.org/2000/svg" width="53.21" height="69.146"><defs><clipPath id="a"><path d="M0 0h53.21v69.146H0z" style="fill:none"/></clipPath></defs><g style="clip-path:url(#a)"><path d="M32.5 23.183a5.543 5.543 0 0 1 6.69 4.964c4.51-.155 5.925.838 7.032 4.962.236-.041.476-.085.716-.122a5.367 5.367 0 0 1 6.075 6.633c-1.68 5.962-3.372 11.929-5.332 17.8-2.589 7.763-11.063 12.775-19.481 11.539a46 46 0 0 1-12.373-3.714 17.6 17.6 0 0 1-8.7-9.009A99 99 0 0 1 3 44.289c-.954-3.007-1.86-6.029-2.78-9.047a3.986 3.986 0 0 1 4.012-5.411 9.35 9.35 0 0 1 8.379 5.062c.915 1.609 1.76 3.257 2.658 4.876a3.2 3.2 0 0 0 .571.594 3.1 3.1 0 0 0 .442-.706q5.3-17.737 10.575-35.482a5.35 5.35 0 0 1 4.4-4.093A5.444 5.444 0 0 1 37.3 7.068c-.858 3.04-1.793 6.059-2.7 9.087zM11.489 38.529l-.013.007c-.493-.912-.946-1.849-1.488-2.73a6.59 6.59 0 0 0-5.713-3.267c-1.251-.042-1.815.717-1.453 1.919.682 2.266 1.36 4.533 2.085 6.785 1.353 4.2 2.654 8.416 4.136 12.568a15.57 15.57 0 0 0 6.782 8.413c2.261 1.346 11.185 4.06 13.817 4.185q.406.02.813.026c6.459.112 12.823-4.134 14.723-10.053 1.833-5.71 3.47-11.482 5.167-17.235a2.65 2.65 0 0 0-1.823-3.328 2.69 2.69 0 0 0-3.351 1.792c-.159.467-.256.96-.456 1.407a1.3 1.3 0 0 1-2.321.2 2 2 0 0 1-.109-1.331c.319-1.293.775-2.551 1.1-3.843a2.64 2.64 0 0 0-1.877-3.234 2.71 2.71 0 0 0-3.308 1.753c-.122.349-.212.709-.321 1.063-.312 1.01-.971 1.438-1.795 1.171a1.417 1.417 0 0 1-.8-1.942c.338-1.161.689-2.319 1.032-3.479a2.71 2.71 0 0 0-2.916-3.487 2.55 2.55 0 0 0-2.226 1.811c-.309.884-.524 1.8-.841 2.684a1.29 1.29 0 0 1-1.621.8 1.32 1.32 0 0 1-.933-1.555 7 7 0 0 1 .214-.785l6.569-22.072a6 6 0 0 0 .237-.931 2.66 2.66 0 0 0-1.2-2.683 2.53 2.53 0 0 0-2.923-.008 3.06 3.06 0 0 0-1.261 1.928q-5.285 17.78-10.587 35.556a3.1 3.1 0 0 1-5.859.627l-1.48-2.736" style="fill:#fff"/></g></svg>