<svg xmlns="http://www.w3.org/2000/svg" width="299.131" height="155.906"><defs><clipPath id="a"><path d="M0 0h299.131v155.906H0z" style="fill:none"/></clipPath><style>.c{fill:#fff}</style></defs><g style="clip-path:url(#a)"><path d="M94.529 113.337v-.027a4.923 4.923 0 0 1 5.029-4.962 5.26 5.26 0 0 1 3.767 1.317l-1.33 1.6a3.52 3.52 0 0 0-2.507-.977 2.88 2.88 0 0 0-2.752 2.989v.027a2.874 2.874 0 0 0 2.9 3.042 3.34 3.34 0 0 0 1.985-.577v-1.362h-2.118v-1.825h4.162v4.165a6.2 6.2 0 0 1-4.095 1.52 4.8 4.8 0 0 1-5.042-4.93M105.847 113.995v-5.482h2.11v5.427c0 1.564.782 2.372 2.07 2.372s2.07-.782 2.07-2.3v-5.5h2.11v5.414c0 2.9-1.632 4.329-4.207 4.329s-4.152-1.442-4.152-4.262M118.252 108.513h2.112v7.669h4.78v1.92h-6.892ZM128.365 108.513h7.3v1.92h-5.191v2.042h4.575v1.917h-4.575v3.714h-2.11ZM144.92 108.513h3.917c2.289 0 3.672 1.357 3.672 3.317v.027c0 2.22-1.727 3.372-3.877 3.372h-1.6v2.877h-2.112Zm3.78 4.837a1.484 1.484 0 0 0 1.667-1.45v-.03c0-.945-.657-1.45-1.712-1.45h-1.627v2.93ZM155.831 108.513h7.234v1.877h-5.139v1.945h4.522v1.877h-4.522v2.015h5.207v1.879h-7.3ZM169.04 110.46h-2.917v-1.947h7.946v1.947h-2.919v7.646h-2.11ZM177.304 108.513h4.382a3.82 3.82 0 0 1 2.8.975 3.01 3.01 0 0 1 .822 2.192v.025a2.984 2.984 0 0 1-2.059 2.977l2.342 3.425h-2.465l-2.055-3.07h-1.657v3.07h-2.11Zm4.247 4.659c1.027 0 1.617-.548 1.617-1.355v-.027c0-.907-.63-1.37-1.66-1.37h-2.094v2.752ZM188.443 113.337v-.027a5.1 5.1 0 0 1 10.194-.027v.027a5.1 5.1 0 0 1-10.194.027m7.989 0v-.027a2.916 2.916 0 0 0-2.9-3.017 2.87 2.87 0 0 0-2.877 2.989v.027a2.913 2.913 0 0 0 2.9 3.012 2.867 2.867 0 0 0 2.877-2.985M201.799 113.337v-.027a4.875 4.875 0 0 1 5-4.962 4.96 4.96 0 0 1 3.784 1.48l-1.344 1.55a3.54 3.54 0 0 0-2.452-1.084 2.844 2.844 0 0 0-2.782 2.989v.027a2.85 2.85 0 0 0 2.782 3.012 3.46 3.46 0 0 0 2.52-1.123l1.344 1.357a4.9 4.9 0 0 1-3.932 1.71 4.84 4.84 0 0 1-4.919-4.93M213.996 108.513h2.108v3.8h3.892v-3.8h2.11v9.593h-2.11v-3.851h-3.892v3.852h-2.108ZM226.26 108.513h7.234v1.877h-5.139v1.945h4.522v1.877h-4.522v2.015h5.209v1.879h-7.3ZM237.353 108.513h2.275l2.522 4.057 2.52-4.057h2.273v9.593h-2.095v-6.263l-2.7 4.1h-.057l-2.67-4.061v6.221h-2.067ZM251.148 108.513h2.11v9.593h-2.11zM256.944 113.337v-.027a4.876 4.876 0 0 1 5-4.962 4.95 4.95 0 0 1 3.782 1.48l-1.342 1.55a3.54 3.54 0 0 0-2.452-1.084 2.844 2.844 0 0 0-2.782 2.989v.027a2.85 2.85 0 0 0 2.782 3.012 3.46 3.46 0 0 0 2.52-1.123l1.342 1.357a4.9 4.9 0 0 1-3.93 1.71 4.84 4.84 0 0 1-4.921-4.93M272.485 108.447h1.945l4.11 9.661h-2.208l-.875-2.152H271.4l-.878 2.151h-2.15Zm2.218 5.644-1.273-3.11-1.275 3.11ZM281.714 108.513h2.11v7.669h4.782v1.92h-6.892ZM291.5 116.711l1.247-1.492a4.4 4.4 0 0 0 2.862 1.16c.865 0 1.385-.342 1.385-.9v-.025c0-.537-.33-.81-1.932-1.222-1.932-.49-3.177-1.027-3.177-2.932v-.025c0-1.742 1.4-2.892 3.355-2.892a5.55 5.55 0 0 1 3.564 1.22l-1.1 1.588a4.5 4.5 0 0 0-2.494-.943c-.808 0-1.232.37-1.232.835v.027c0 .63.412.835 2.07 1.26 1.945.507 3.04 1.2 3.04 2.877v.027c0 1.9-1.45 2.974-3.52 2.974a6.1 6.1 0 0 1-4.069-1.537M100.3 132.955a4.32 4.32 0 0 1-2.809 1.068c-1.837 0-3.222-1.068-3.222-2.765v-.03a2.785 2.785 0 0 1 1.865-2.632 3.2 3.2 0 0 1-.67-1.917v-.025a2.63 2.63 0 0 1 2.9-2.522 2.48 2.48 0 0 1 2.7 2.41v.03a2.66 2.66 0 0 1-2.017 2.507l1.277 1.275c.313-.495.628-1.057.93-1.645l1.547.85a18 18 0 0 1-1.26 2.027l1.412 1.41-1.55 1.082Zm-1.18-1.2-1.834-1.87a1.43 1.43 0 0 0-.892 1.26v.027a1.193 1.193 0 0 0 1.342 1.123 2.27 2.27 0 0 0 1.385-.545m.11-5.057v-.03a.845.845 0 0 0-.9-.888.9.9 0 0 0-.934.972v.03a1.71 1.71 0 0 0 .562 1.188c.835-.313 1.275-.67 1.275-1.273M108.536 129.111v-.027a4.874 4.874 0 0 1 5-4.959 4.96 4.96 0 0 1 3.782 1.48l-1.344 1.547a3.54 3.54 0 0 0-2.452-1.08 2.84 2.84 0 0 0-2.782 2.987v.025a2.85 2.85 0 0 0 2.782 3.017 3.46 3.46 0 0 0 2.522-1.127l1.34 1.359a4.89 4.89 0 0 1-3.93 1.71 4.84 4.84 0 0 1-4.918-4.932M119.185 124.298h2.11v3.8h3.892v-3.8h2.11v9.591h-2.11v-3.852h-3.892v3.847h-2.11ZM129.902 124.298h7.234v1.879h-5.139v1.941h4.522v1.88h-4.522v2.015h5.207v1.875h-7.3ZM139.445 124.298h2.275l2.522 4.059 2.52-4.059h2.273v9.591h-2.096v-6.26l-2.7 4.1h-.057l-2.674-4.057v6.219h-2.063ZM151.693 124.294h2.11v9.591h-2.11zM155.94 129.111v-.027a4.875 4.875 0 0 1 5-4.959 4.95 4.95 0 0 1 3.78 1.48l-1.34 1.547a3.54 3.54 0 0 0-2.452-1.08 2.84 2.84 0 0 0-2.782 2.987v.025a2.85 2.85 0 0 0 2.782 3.017 3.46 3.46 0 0 0 2.52-1.127l1.344 1.359a4.91 4.91 0 0 1-3.934 1.71 4.84 4.84 0 0 1-4.918-4.932M169.929 124.226h1.945l4.112 9.659h-2.206l-.875-2.148h-4.059l-.877 2.148h-2.15Zm2.221 5.646-1.27-3.11-1.279 3.11ZM177.612 124.298h2.108v7.674h4.784v1.917h-6.892ZM185.849 132.488l1.245-1.492a4.4 4.4 0 0 0 2.864 1.163c.863 0 1.383-.342 1.383-.9v-.032c0-.535-.328-.808-1.93-1.218-1.932-.493-3.179-1.027-3.179-2.932v-.027c0-1.74 1.4-2.89 3.357-2.89a5.55 5.55 0 0 1 3.56 1.218l-1.1 1.592a4.5 4.5 0 0 0-2.492-.949c-.81 0-1.235.372-1.235.837v.027c0 .63.412.835 2.07 1.26 1.947.509 3.042 1.207 3.042 2.877v.027c0 1.9-1.454 2.972-3.52 2.972a6.1 6.1 0 0 1-4.069-1.533M203.034 124.226h1.945l4.112 9.659h-2.2l-.879-2.148h-4.061l-.877 2.148h-2.149Zm2.22 5.646-1.273-3.11-1.275 3.11ZM210.132 132.488l1.247-1.492a4.4 4.4 0 0 0 2.862 1.163c.865 0 1.385-.342 1.385-.9v-.032c0-.535-.33-.808-1.932-1.218-1.932-.493-3.177-1.027-3.177-2.932v-.027c0-1.74 1.4-2.89 3.355-2.89a5.56 5.56 0 0 1 3.56 1.217l-1.1 1.592a4.5 4.5 0 0 0-2.492-.949c-.81 0-1.235.372-1.235.837v.027c0 .63.41.835 2.07 1.26 1.945.509 3.04 1.207 3.04 2.877v.027c0 1.9-1.452 2.972-3.52 2.972a6.1 6.1 0 0 1-4.063-1.532M219.077 132.488l1.243-1.492a4.42 4.42 0 0 0 2.864 1.163c.863 0 1.383-.342 1.383-.9v-.032c0-.535-.326-.808-1.93-1.218-1.932-.493-3.177-1.027-3.177-2.932v-.027c0-1.74 1.4-2.89 3.355-2.89a5.55 5.55 0 0 1 3.562 1.218l-1.1 1.592a4.5 4.5 0 0 0-2.495-.949c-.808 0-1.232.372-1.232.837v.027c0 .63.41.835 2.067 1.26 1.947.509 3.042 1.207 3.042 2.877v.027c0 1.9-1.45 2.972-3.52 2.972a6.1 6.1 0 0 1-4.067-1.533M228.169 129.111v-.027a5.1 5.1 0 0 1 10.194-.025v.025a5.1 5.1 0 0 1-10.194.027m7.987 0v-.027a2.913 2.913 0 0 0-2.9-3.012 2.87 2.87 0 0 0-2.877 2.987v.025a2.915 2.915 0 0 0 2.9 3.017 2.87 2.87 0 0 0 2.877-2.99M239.973 129.111v-.027a4.873 4.873 0 0 1 5-4.959 4.95 4.95 0 0 1 3.783 1.486l-1.342 1.547a3.54 3.54 0 0 0-2.452-1.08 2.84 2.84 0 0 0-2.78 2.987v.025a2.85 2.85 0 0 0 2.78 3.017 3.47 3.47 0 0 0 2.522-1.127l1.342 1.359a4.9 4.9 0 0 1-3.932 1.71 4.84 4.84 0 0 1-4.919-4.932M250.662 124.294h2.11v9.591h-2.11zM258.526 124.226h1.94l4.11 9.659h-2.2l-.877-2.148h-4.055l-.877 2.148h-2.152Zm2.22 5.646-1.28-3.11-1.27 3.11ZM267.308 126.241h-2.919v-1.943h7.946v1.947h-2.919v7.644h-2.108ZM274.068 124.294h2.11v9.591h-2.11zM278.317 129.111v-.027a5.1 5.1 0 0 1 10.194-.025v.025a5.1 5.1 0 0 1-10.194.027m7.987 0v-.027a2.91 2.91 0 0 0-2.9-3.012 2.87 2.87 0 0 0-2.879 2.987v.025a2.916 2.916 0 0 0 2.9 3.017 2.87 2.87 0 0 0 2.877-2.989M290.61 124.298h1.945l4.494 5.906v-5.906h2.082v9.591h-1.791l-4.644-6.095v6.095h-2.086ZM45.391 148.858a1.31 1.31 0 0 1-1.389 1.167h-4.64a3.52 3.52 0 0 1-3.281-1.843 6.9 6.9 0 0 1-.778-3.621h1.571a6 6 0 0 0 .509 2.634 2.17 2.17 0 0 0 2.051 1.378h3.805c.387 0 .581-.287.581-.837l-.044-3.175h1.586c.017.761.03 2.2.03 4.3m-5.251-4.3h-1.439v-1.51h1.438Zm2.169 0h-1.439v-1.51h1.438ZM50.799 150.025h-1.841a1.46 1.46 0 0 1-1.061-.433 1.77 1.77 0 0 1-.509-1.332l-.047-7.919h1.588l.059 7.291c0 .537.268.943.689.943H50.8Z" class="c"/><path d="M51.923 152.302h-1.452v-1.513h1.452Zm2.947-4.223a1.8 1.8 0 0 1-2.006 1.945h-2.349v-1.445h1.765a.955.955 0 0 0 1.016-1.035c0-.583 0-1.082-.015-1.484-.015-.615-.015-1.12-.03-1.5h1.588c.013 2.363.027 3.532.027 3.518m-.793 4.222H52.64v-1.511h1.438ZM57.342 152.031a3.165 3.165 0 0 0 3.025-2.006h-1.048a2.563 2.563 0 0 1-2.5-2.676 2.726 2.726 0 0 1 2.8-2.816 2.28 2.28 0 0 1 2.575 2.366v1.736c0 2.575-1.526 4.461-3.877 4.64-.224-.3-.554-.717-.975-1.243m3.264-3.469c-.015-1.228-.015-1.9-.015-2.023a1.1 1.1 0 0 0-.972-.911c-.689 0-1.213.628-1.213 1.647a1.226 1.226 0 0 0 1.136 1.287ZM67.611 150.025H65.77a1.46 1.46 0 0 1-1.061-.433 1.77 1.77 0 0 1-.509-1.332l-.047-7.919h1.588l.059 7.291c0 .537.271.943.689.943h1.123Z" class="c"/><path d="M75.486 150.026h-1.543a2.43 2.43 0 0 1-2.425 1.364 2.64 2.64 0 0 1-2.469-1.364h-1.721v-1.45h1.332a2.576 2.576 0 0 1 2.738-2.814 2.7 2.7 0 0 1 2.112.884 2.76 2.76 0 0 1 .748 1.93h1.228Zm-2.8-1.45a1.63 1.63 0 0 0-.389-1.123 1.07 1.07 0 0 0-.824-.374 1 1 0 0 0-.808.374 1.7 1.7 0 0 0-.347 1.123 1.62 1.62 0 0 0 .391 1.135 1.07 1.07 0 0 0 .824.376c.657 0 1.152-.539 1.152-1.512" class="c"/><path d="M82.3 150.026h-1.334a1.47 1.47 0 0 1-1.15-.567 2.2 2.2 0 0 1-.374-.645 1.97 1.97 0 0 1-1.856 1.211H75.22v-1.446h1.765a1.35 1.35 0 0 0 .78-.239.9.9 0 0 0 .463-.81l-.03-2.964h1.571q0 .831.047 2.336a1.7 1.7 0 0 0 .463 1.256 1.08 1.08 0 0 0 .822.421h1.2v1.45Zm-4 2.277h-1.45v-1.514h1.452Zm2.156 0h-1.433v-1.514h1.435Z" class="c"/><path d="M92.343 150.026H82.018v-1.45h6.095a3.06 3.06 0 0 0-1-1.915 2.7 2.7 0 0 0-1.812-.63 4.1 4.1 0 0 0-2.23.7l-.583-1.226 4.027-4.059 1.114 1.091-2.065 2.023c2.319 0 3.683 1.332 4.072 4.012h2.708Z" class="c"/><path d="M95.668 148.08a1.817 1.817 0 0 1-2.021 1.945h-1.585v-1.452h1.017a.953.953 0 0 0 1.019-1.032c0-.926-.015-2.127-.03-3.594-.015-1.664-.03-2.873-.03-3.606h1.569c.017.689.017 1.977.034 3.875.013 1.617.027 2.9.027 3.864M99.263 150.025h-1.571l-.074-9.684h1.571ZM101.733 152.031a3.165 3.165 0 0 0 3.025-2.006h-1.05a2.563 2.563 0 0 1-2.5-2.676 2.724 2.724 0 0 1 2.8-2.816 2.283 2.283 0 0 1 2.577 2.366v1.736c0 2.575-1.526 4.461-3.877 4.64-.224-.3-.554-.717-.975-1.243m3.262-3.469c-.015-1.228-.015-1.9-.015-2.023a1.1 1.1 0 0 0-.975-.911c-.685 0-1.211.628-1.211 1.647a1.226 1.226 0 0 0 1.139 1.287ZM120.941 148.858a1.314 1.314 0 0 1-1.393 1.167h-4.64a3.52 3.52 0 0 1-3.277-1.843 6.9 6.9 0 0 1-.78-3.621h1.571a5.95 5.95 0 0 0 .512 2.634 2.16 2.16 0 0 0 2.051 1.378h3.8c.393 0 .586-.287.586-.837l-.044-3.175h1.586c.017.761.032 2.2.032 4.3m-5.255-4.3h-1.442v-1.51h1.438Zm2.171 0h-1.439v-1.51h1.435ZM126.346 150.025h-1.841a1.46 1.46 0 0 1-1.061-.433 1.77 1.77 0 0 1-.509-1.332l-.044-7.919h1.585l.059 7.291c0 .537.268.943.689.943h1.123Z" class="c"/><path d="M127.469 152.302h-1.45v-1.513h1.45Zm2.951-4.223a1.805 1.805 0 0 1-2.008 1.945h-2.349v-1.445h1.765a.954.954 0 0 0 1.017-1.032c0-.583 0-1.082-.013-1.484-.015-.615-.015-1.12-.032-1.5h1.59c.013 2.363.03 3.532.03 3.518m-.795 4.222h-1.437v-1.514h1.438ZM132.889 152.031a3.165 3.165 0 0 0 3.025-2.006h-1.048a2.563 2.563 0 0 1-2.5-2.676 2.726 2.726 0 0 1 2.8-2.816 2.282 2.282 0 0 1 2.575 2.366v1.736c0 2.575-1.526 4.461-3.877 4.64-.224-.3-.554-.717-.975-1.243m3.263-3.469c-.015-1.228-.015-1.9-.015-2.023a1.1 1.1 0 0 0-.972-.911c-.689 0-1.213.628-1.213 1.647a1.226 1.226 0 0 0 1.14 1.287ZM143.161 150.025h-1.842a1.45 1.45 0 0 1-1.061-.433 1.77 1.77 0 0 1-.509-1.332l-.044-7.919h1.585l.059 7.291c0 .537.271.943.687.943h1.125Z" class="c"/><path d="M151.034 150.026h-1.544a2.44 2.44 0 0 1-2.427 1.364 2.64 2.64 0 0 1-2.469-1.364h-1.718v-1.45h1.332a2.576 2.576 0 0 1 2.74-2.814 2.7 2.7 0 0 1 2.112.884 2.77 2.77 0 0 1 .746 1.93h1.228Zm-2.8-1.45a1.63 1.63 0 0 0-.389-1.123 1.07 1.07 0 0 0-.824-.374.99.99 0 0 0-.805.374 1.7 1.7 0 0 0-.345 1.123 1.62 1.62 0 0 0 .389 1.135 1.06 1.06 0 0 0 .82.376c.662 0 1.154-.539 1.154-1.512" class="c"/><path d="M157.847 150.026h-1.332a1.48 1.48 0 0 1-1.154-.567 2.2 2.2 0 0 1-.372-.645 1.97 1.97 0 0 1-1.858 1.211h-2.366v-1.446h1.767a1.34 1.34 0 0 0 .778-.239.9.9 0 0 0 .465-.81l-.03-2.964h1.571q0 .831.044 2.336a1.7 1.7 0 0 0 .465 1.256 1.08 1.08 0 0 0 .822.421h1.2v1.45Zm-4 2.277h-1.45v-1.514h1.45Zm2.156 0h-1.435v-1.514h1.438Z" class="c"/><path d="M165.303 150.026h-7.739v-1.465h6.095a2.97 2.97 0 0 0-.975-1.9 2.73 2.73 0 0 0-1.826-.63 4.12 4.12 0 0 0-2.23.7l-.583-1.226 4.027-4.059 1.107 1.091-2.049 2.026a3.59 3.59 0 0 1 3.277 1.674 7 7 0 0 1 .9 3.786M167.772 152.031a3.17 3.17 0 0 0 3.025-2.006h-1.046a2.564 2.564 0 0 1-2.5-2.676 2.727 2.727 0 0 1 2.8-2.816 2.283 2.283 0 0 1 2.579 2.366v1.736c0 2.575-1.526 4.461-3.877 4.64-.228-.3-.556-.717-.977-1.243m3.262-3.469c-.017-1.228-.017-1.9-.017-2.023a1.1 1.1 0 0 0-.975-.911c-.687 0-1.209.628-1.209 1.647a1.224 1.224 0 0 0 1.138 1.287ZM172.387 152.032a3.174 3.174 0 0 0 3.277-3.232v-4.237h1.587v2.5a1.56 1.56 0 0 0 1.3 1.514h1.662v1.45h-1.554a1.56 1.56 0 0 1-1.393-.928 4.223 4.223 0 0 1-3.892 4.175c-.224-.3-.554-.717-.987-1.241" class="c"/><path d="M187.147 150.026h-1.467a1.47 1.47 0 0 1-1.152-.567 2.2 2.2 0 0 1-.374-.645 1.97 1.97 0 0 1-1.856 1.211h-2.366v-1.45h1.767a1.35 1.35 0 0 0 .778-.239.9.9 0 0 0 .463-.81l-.03-2.964h1.573q0 .831.044 2.336a1.7 1.7 0 0 0 .465 1.256 1.08 1.08 0 0 0 .82.421h1.335v1.45Zm-3.862-6.676h-1.453v-1.514h1.452Zm2.171 0h-1.452v-1.514h1.452Z" class="c"/><path d="M194.108 150.026h-1.467a1.47 1.47 0 0 1-1.156-.567 2.2 2.2 0 0 1-.374-.645 1.965 1.965 0 0 1-1.856 1.211h-2.362v-1.446h1.765a1.34 1.34 0 0 0 .78-.239.9.9 0 0 0 .465-.81l-.032-2.964h1.573q-.001.83.044 2.336a1.7 1.7 0 0 0 .463 1.256 1.09 1.09 0 0 0 .824.421h1.332v1.45Zm-2.528 2.277h-1.453v-1.514h1.452Z" class="c"/><path d="M200.188 150.026h-1.257a1.7 1.7 0 0 1-1.511-1.213 2.01 2.01 0 0 1-1.871 1.213h-1.694v-1.45h1.093a1.17 1.17 0 0 0 1.241-1.049l-.059-7.217h1.571c0 1.11.061 6.139.076 6.589a1.573 1.573 0 0 0 1.287 1.676h1.123Z" class="c"/><path d="M203.512 148.08a1.817 1.817 0 0 1-2.021 1.945h-1.588v-1.452h1.019a.954.954 0 0 0 1.019-1.032c0-.926-.015-2.127-.032-3.594-.013-1.664-.03-2.873-.03-3.606h1.573c.015.689.015 1.977.03 3.875.015 1.617.03 2.9.03 3.864M220.128 150.026h-1.211a1.91 1.91 0 0 1-1.467-.643 2.6 2.6 0 0 1-.6-1.123q-.558-2.629-2.2-2.6c-.839.013-1.423.537-1.765 1.573h2.873v1.841a4.16 4.16 0 0 1-1.169 2.977 3.773 3.773 0 0 1-5.6 0 4.2 4.2 0 0 1-1.165-2.991c-.017-.376-.032-.975-.061-1.826h1.571c0 .254 0 .611.015 1.046s.032.689.032.795a2.5 2.5 0 0 0 .822 1.943 2.28 2.28 0 0 0 1.573.645 2.24 2.24 0 0 0 1.6-.645 2.55 2.55 0 0 0 .808-1.974l-.015-.345h-3.185a5.42 5.42 0 0 1 .989-3.488 3.468 3.468 0 0 1 5.372.224 7.4 7.4 0 0 1 .9 2.186 1.164 1.164 0 0 0 1.211.96h.674Zm-8.518 5.877h-1.438v-1.508h1.438Zm2.171 0h-1.437v-1.508h1.44Z" class="c"/><path d="M229.303 150.026h-9.549v-1.45h6.57c-.3-1.782-1.167-2.664-2.6-2.664a3.1 3.1 0 0 0-1.991.509l-.611-1.23a3.9 3.9 0 0 1 2.647-.778 3.58 3.58 0 0 1 2.89 1.273 5.53 5.53 0 0 1 1.182 2.89h1.462Zm-4.561 2.274h-1.439v-1.511h1.44Z" class="c"/><path d="M236.105 150.026h-1.332a1.48 1.48 0 0 1-1.154-.567 2.2 2.2 0 0 1-.372-.645 1.97 1.97 0 0 1-1.858 1.211h-2.363v-1.446h1.767a1.33 1.33 0 0 0 .776-.239.9.9 0 0 0 .465-.81l-.03-2.964h1.571q0 .831.044 2.336a1.7 1.7 0 0 0 .465 1.256 1.08 1.08 0 0 0 .824.421h1.2v1.45Zm-4 2.277h-1.452v-1.514h1.452Zm2.156 0h-1.44v-1.514h1.44Z" class="c"/><path d="M242.152 150.026h-1.258a1.7 1.7 0 0 1-1.512-1.213 2.01 2.01 0 0 1-1.871 1.213h-1.691v-1.45h1.093a1.17 1.17 0 0 0 1.241-1.049l-.059-7.217h1.573c0 1.11.059 6.139.076 6.589a1.57 1.57 0 0 0 1.285 1.676h1.123Z" class="c"/><path d="M251.421 150.026h-9.551v-1.45h6.572c-.3-1.782-1.167-2.664-2.607-2.664a3.08 3.08 0 0 0-1.989.509l-.613-1.23a3.9 3.9 0 0 1 2.651-.778 3.58 3.58 0 0 1 2.888 1.273 5.56 5.56 0 0 1 1.182 2.89h1.467Zm-4.625-6.676h-1.452v-1.514h1.452Z" class="c"/><path d="M254.745 148.08a1.817 1.817 0 0 1-2.021 1.945h-1.584v-1.452h1.019a.952.952 0 0 0 1.015-1.032c0-.926-.015-2.127-.03-3.594-.015-1.664-.027-2.873-.027-3.606h1.569c.017.689.017 1.977.03 3.875.017 1.617.032 2.9.032 3.864M258.338 150.025h-1.572l-.076-9.684h1.576ZM270.028 150.026h-6.6l.748-1.45h4.162a3.2 3.2 0 0 0-.869-1.977 1.76 1.76 0 0 0-1.213-.615v-1.421a3.22 3.22 0 0 1 2.755 1.332 7.06 7.06 0 0 1 1.017 4.131M275.435 150.025h-1.841a1.46 1.46 0 0 1-1.061-.433 1.77 1.77 0 0 1-.51-1.332l-.044-7.919h1.585l.059 7.291c0 .537.271.943.689.943h1.123Z" class="c"/><path d="M284.703 150.026h-9.551v-1.45h6.572c-.3-1.784-1.167-2.664-2.607-2.664a3.08 3.08 0 0 0-1.989.509l-.615-1.23a3.92 3.92 0 0 1 2.651-.778 3.57 3.57 0 0 1 2.888 1.273 5.5 5.5 0 0 1 1.184 2.89h1.467Z" class="c"/><path d="M288.778 148.081a1.8 1.8 0 0 1-2.006 1.945h-2.351v-1.45h1.765a.954.954 0 0 0 1.019-1.032c0-.583 0-1.082-.015-1.484-.015-.615-.015-1.12-.03-1.5h1.588c.013 2.363.03 3.532.03 3.518m-2.292-4.731h-1.438v-1.511h1.438Zm2.171 0h-1.438v-1.511h1.438ZM295.501 147.091a2.56 2.56 0 0 1-1.093 2.127 4.53 4.53 0 0 1-2.784.808h-1.275v-1.453h.66a3.75 3.75 0 0 0 1.824-.419 1.89 1.89 0 0 0 1.065-1.767l-.093-6.046h1.6Zm-2.951-.074a2.43 2.43 0 0 1-1.573.569l-.074-7.245h1.573ZM299.091 150.025h-1.571l-.076-9.684h1.573ZM35.312 28.04A35.3 35.3 0 0 0 4.727 81.01v.008a35.1 35.1 0 0 0 6.5 8.156.3.3 0 0 0 .082.082 35.3 35.3 0 0 0 48.019 0 .3.3 0 0 0 .082-.082 36 36 0 0 0 1.812-1.812v11.314a25.933 25.933 0 0 1-25.907 25.9v9.42a35.316 35.316 0 0 0 35.313-35.32V28.04Zm25.907 35.318a25.8 25.8 0 0 1-1.776 9.418 1 1 0 0 1-.036.074v.008a25.906 25.906 0 0 1-48.184 0v-.008a.3.3 0 0 1-.034-.074A25.89 25.89 0 0 1 35.312 37.46h25.907ZM148.228 63.358a35.5 35.5 0 0 1-1.27 9.42 35.2 35.2 0 0 1-9.08 15.548q-.396.4-.8.774a2 2 0 0 1-.173.156 35.28 35.28 0 0 1-48 0h-.015v-.008c-.328-.3-.643-.6-.956-.922a21 21 0 0 1-.822-.854v46.525h-9.421V60.709A35.18 35.18 0 0 1 87.94 38.381q.471-.474.962-.922h-.042l2.759-2.75 6.661-6.67 6.66-6.652a9.38 9.38 0 0 1 2.757 6.653v.008q.002.197-.008.383a9.37 9.37 0 0 1-2.59 6.114c-.159.165-.317.323-.484.482l-2.436 2.433-7.587 7.583a25.83 25.83 0 0 0-7.572 18.315c0 .706.023 1.412.093 2.112a25.5 25.5 0 0 0 1.676 7.308.6.6 0 0 0 .051.14 25.4 25.4 0 0 0 5.19 8.158c.175.209.366.4.562.6a25.95 25.95 0 0 0 36.635 0c.23-.233.454-.465.662-.706a25.4 25.4 0 0 0 5.143-8.181v-.008a25.99 25.99 0 0 0-5.8-27.735h-.008l-.152-.148-7.438-7.438-2.424-2.434c-.133-.125-.266-.249-.393-.383a9.46 9.46 0 0 1-2.677-6.212c-.008-.125-.008-.249-.008-.383v-.008a9.37 9.37 0 0 1 2.759-6.653l6.649 6.653 6.663 6.661v.008l2.757 2.75h-.032c.323.3.638.607.953.922a35.19 35.19 0 0 1 10.35 24.977M162.46 63.358a25.7 25.7 0 0 0 1.78 9.418.2.2 0 0 0 .032.074v.008a25.91 25.91 0 0 0 48.184-.008c.006-.025.017-.049.023-.074h9.927a35.3 35.3 0 0 1-3.456 8.232v.008a35.4 35.4 0 0 1-6.494 8.164 1 1 0 0 1-.082.074 35.3 35.3 0 0 1-48.021 0 .3.3 0 0 1-.08-.082 35 35 0 0 1-6.5-8.156v-.008a35.318 35.318 0 0 1 30.583-52.97h35.321v9.42h-35.319a25.926 25.926 0 0 0-25.9 25.9M263.702 28.04a35.3 35.3 0 0 0-30.589 52.97v.008a35.8 35.8 0 0 0 6.494 8.164.6.6 0 0 0 .085.074 35.31 35.31 0 0 0 48.026 0 1 1 0 0 0 .085-.074 36 36 0 0 0 1.8-1.81v11.304h9.42V28.04Zm25.9 35.318a25.8 25.8 0 0 1-1.777 9.418l-.023.074a26.1 26.1 0 0 1-5.167 8.166 25.913 25.913 0 0 1-43.028-8.166l-.025-.074a25.89 25.89 0 0 1 24.121-35.318h25.9ZM119.862 7.928a3.458 3.458 0 1 1-4.835.753 3.453 3.453 0 0 1 4.835-.753M112.925 14.502a3.238 3.238 0 1 1-4.522.719 3.243 3.243 0 0 1 4.522-.719" class="c"/><path d="M125.37 50.066a6.1 6.1 0 1 1-8.541 1.228 6.1 6.1 0 0 1 8.541-1.228M130.967 67.487a6.071 6.071 0 1 1-8.509 1.113 6.07 6.07 0 0 1 8.509-1.113M119.833 75.695a4.638 4.638 0 1 1-6.507.837 4.64 4.64 0 0 1 6.507-.837M116.138 61.352a5.983 5.983 0 1 1-8.342 1.4 5.987 5.987 0 0 1 8.342-1.4M107.202 49.343a3.625 3.625 0 1 1-5.063.78 3.627 3.627 0 0 1 5.063-.78M107.702 73.449a5.721 5.721 0 1 1-8.02 1.072 5.714 5.714 0 0 1 8.02-1.072M99.987 63.769a4.461 4.461 0 1 1-6.251.869 4.463 4.463 0 0 1 6.251-.869M108.937.9a4.462 4.462 0 1 1-6.249.867A4.466 4.466 0 0 1 108.937.9M114.326 39.72a3.139 3.139 0 1 1-4.387.7 3.133 3.133 0 0 1 4.387-.7" class="c"/></g></svg>